# xmcd
#
# Track frame offsets:
#	150
#	14696
#	27178
#	44547
#	58833
#	68412
#	84202
#	102170
#	112600
#	126809
#	139200
#	152867
#	167760
#	183081
#	197155
#	210882
#	225270
#	239558
#	250370
#	271815
#
# Disc length: 3862 seconds
#
# Revision: 1
# Processed by: cddbd v1.5.2PL0 Copyright (c) Steve Scherf et al.
# Submitted via: audiograbber 1.83.01
#
DISCID=040f1414
DTITLE=Tom Astor - Memories CD2
DYEAR=2013
DGENRE=Country
TTITLE0=Komm, komm, komm, Mädchen meiner Träume
TTITLE1=Taka Takata
TTITLE2=Jeder Weg hat ein Ziel
TTITLE3=Sonnenschein, auch wenn's regnet und schneit
TTITLE4=Hey, hey Julie
TTITLE5=So wie du
TTITLE6=Baby, Du bist nicht alleine
TTITLE7=In den 20er Jahren
TTITLE8=Glocken der Liebe
TTITLE9=Rosana
TTITLE10=Dass Du mich liebst, das weiß ich
TTITLE11=Weit so weit
TTITLE12=Aber Dich gibt's nur einmal für mich
TTITLE13=Rote Rosen, rote Lippen, roter Wein
TTITLE14=Muss i denn zum Städtele hinaus
TTITLE15=Engel in Jeans
TTITLE16=Juanita, Juanita
TTITLE17=Girl Woman
TTITLE18=Bella Bella Marie
TTITLE19=Amore und Vino
EXTD=
EXTT0=
EXTT1=
EXTT2=
EXTT3=
EXTT4=
EXTT5=
EXTT6=
EXTT7=
EXTT8=
EXTT9=
EXTT10=
EXTT11=
EXTT12=
EXTT13=
EXTT14=
EXTT15=
EXTT16=
EXTT17=
EXTT18=
EXTT19=
PLAYORDER=
